<?xml version="1.0" encoding="iso-8859-1"?>
<!-- Generator: Adobe Illustrator 19.0.0, SVG Export Plug-In . SVG Version: 6.00 Build 0)  -->
<svg version="1.1" id="Layer_1" xmlns="http://www.w3.org/2000/svg" xmlns:xlink="http://www.w3.org/1999/xlink" x="0px" y="0px"
	 viewBox="0 0 511.999 511.999" style="enable-background:new 0 0 511.999 511.999;" xml:space="preserve">
<g>
	<g>
		<path d="M410.613,5.068C409.354,2.002,406.368,0,403.055,0H108.927c-3.314,0-6.3,2.002-7.558,5.068
			C85.275,44.276,72.907,85.096,64.611,126.39c-0.889,4.425,3.064,8.843,7.488,9.733l114.692,0.047
			c-5.371,83.308-5.778,163.839-1.214,239.66H79.419c-13.364-70.389-14.971-142.725-4.415-213.951
			c0.661-4.464-2.421-8.618-6.884-9.28c-4.472-0.67-8.619,2.421-9.28,6.884c-17.371,117.208-2.665,237.355,42.529,347.449
			c1.258,3.065,4.244,5.068,7.558,5.068h294.128c3.314,0,6.3-2.002,7.558-5.068c32.296-78.678,48.99-161.558,49.615-246.335
			C460.876,172.822,444.183,86.848,410.613,5.068z M413.259,59.915c2.901,9.039,5.59,18.12,8.082,27.234H322.7
			c-0.842-9.203-1.755-18.311-2.739-27.234H413.259z M114.43,16.34h283.122c3.619,9.029,7.018,18.11,10.215,27.234H104.222
			C107.423,34.423,110.825,25.34,114.43,16.34z M306.293,87.149h-99.399c0.797-9.133,1.65-18.236,2.547-27.234h94.075
			C304.512,68.831,305.441,77.933,306.293,87.149z M98.756,59.915h94.262c-0.89,9.003-1.733,18.108-2.525,27.234H90.681
			C93.17,78.021,95.866,68.939,98.756,59.915z M82.685,119.83c1.186-5.458,2.445-10.906,3.775-16.34h339.124
			c1.334,5.437,2.604,10.883,3.794,16.34H82.685z M98.777,452.085c-2.887-9.029-5.591-18.106-8.073-27.234h98.577
			c0.842,9.201,1.755,18.309,2.739,27.234H98.777z M397.552,495.66H114.43c-3.61-9.011-6.996-18.095-10.189-27.234h96.89
			c0.041,0,108.787,0,108.787,0c0.042,0,97.849,0,97.849,0C404.57,477.55,401.171,486.631,397.552,495.66z M205.687,424.851h99.399
			c-0.799,9.136-1.651,18.24-2.547,27.234h-94.076C207.47,443.167,206.54,434.065,205.687,424.851z M413.259,452.085h-94.297
			c0.89-8.999,1.733-18.105,2.525-27.234h99.854C418.849,433.965,416.161,443.046,413.259,452.085z M425.584,408.511H313.879
			c-0.023,0-0.046,0-0.068,0H196.894c-0.039,0-110.384,0-110.384,0c-1.326-5.434-2.589-10.879-3.773-16.34h346.641
			C428.187,397.628,426.919,403.074,425.584,408.511z M432.715,375.83H325.196c2.197-34.122,3.586-68.228,4.112-101.515
			c0.071-4.512-3.528-8.227-8.041-8.298c-0.044-0.001-0.087-0.001-0.131-0.001c-4.452,0-8.097,3.573-8.167,8.042
			c-0.527,33.365-1.929,67.563-4.149,101.773H201.949c-4.607-75.751-4.198-156.292,1.217-239.66h106.871
			c2.067,34.02,3.143,69.404,3.179,105.343c0.004,4.51,3.661,8.161,8.17,8.161c4.52-0.004,8.175-3.666,8.17-8.179
			c-0.035-35.913-1.102-71.289-3.147-105.327h106.308C447.866,215.454,447.866,296.546,432.715,375.83z"/>
	</g>
</g>
<g>
	<g>
		<g>
			<path d="M72.139,136.127C72.177,136.131,72.165,136.13,72.139,136.127L72.139,136.127z"/>
			<path d="M72.139,136.127c-0.011-0.001-0.016-0.002-0.04-0.004C72.099,136.123,72.119,136.125,72.139,136.127z"/>
		</g>
	</g>
</g>
<g>
	<g>
		<path d="M72.099,136.123C71.748,136.099,72.454,136.194,72.099,136.123L72.099,136.123z"/>
	</g>
</g>
<g>
	<g>
		<circle cx="139.351" cy="310.468" r="8.17"/>
	</g>
</g>
<g>
	<g>
		<circle cx="106.67" cy="343.149" r="8.17"/>
	</g>
</g>
<g>
	<g>
		<circle cx="405.318" cy="168.851" r="8.17"/>
	</g>
</g>
<g>
</g>
<g>
</g>
<g>
</g>
<g>
</g>
<g>
</g>
<g>
</g>
<g>
</g>
<g>
</g>
<g>
</g>
<g>
</g>
<g>
</g>
<g>
</g>
<g>
</g>
<g>
</g>
<g>
</g>
</svg>
