<?xml version="1.0" encoding="iso-8859-1"?>
<!-- Generator: Adobe Illustrator 19.0.0, SVG Export Plug-In . SVG Version: 6.00 Build 0)  -->
<svg version="1.1" id="Layer_1" xmlns="http://www.w3.org/2000/svg" xmlns:xlink="http://www.w3.org/1999/xlink" x="0px" y="0px"
	 viewBox="0 0 512 512" style="enable-background:new 0 0 512 512;" xml:space="preserve">
<g>
	<g>
		<circle cx="137.195" cy="299.574" r="8.17"/>
	</g>
</g>
<g>
	<g>
		<circle cx="104.514" cy="179.745" r="8.17"/>
	</g>
</g>
<g>
	<g>
		<circle cx="251.578" cy="332.255" r="8.17"/>
	</g>
</g>
<g>
	<g>
		<circle cx="284.259" cy="364.936" r="8.17"/>
	</g>
</g>
<g>
	<g>
		<path d="M423.148,98.043h-57.192V73.532c0-4.513-3.657-8.17-8.17-8.17h-24.511V40.851C333.275,18.325,314.95,0,292.424,0
			c-8.904,0-17.495,2.916-24.511,8.181C260.898,2.916,252.308,0,243.403,0c-8.904,0-17.495,2.916-24.511,8.181
			C211.877,2.916,203.286,0,194.382,0s-17.495,2.916-24.511,8.181C162.856,2.916,154.265,0,145.361,0
			c-8.904,0-17.495,2.916-24.511,8.181C113.835,2.916,105.244,0,96.339,0C73.814,0,55.488,18.325,55.488,40.851v24.511H30.978
			c-4.513,0-8.17,3.657-8.17,8.17v331.803l-7.234,65.112c-1.22,10.981,2.005,21.383,9.083,29.291
			C31.734,507.646,41.718,512,52.765,512h283.234c11.049,0,21.031-4.355,28.11-12.263c7.078-7.909,10.303-18.311,9.083-29.291
			l-7.236-65.112v-24.057h57.192c40.546,0,73.532-32.986,73.532-73.532v-136.17C496.68,131.028,463.694,98.043,423.148,98.043z
			 M71.829,40.851c0-13.515,10.996-24.511,24.511-24.511c7.024,0,13.725,3.028,18.383,8.311c1.551,1.758,3.783,2.766,6.128,2.766
			s4.576-1.008,6.128-2.766c4.659-5.282,11.359-8.311,18.383-8.311c7.024,0,13.725,3.028,18.383,8.311
			c1.551,1.758,3.783,2.766,6.128,2.766s4.576-1.008,6.128-2.766c4.659-5.282,11.359-8.311,18.383-8.311
			c7.024,0,13.725,3.028,18.383,8.311c1.551,1.758,3.783,2.766,6.128,2.766s4.576-1.008,6.128-2.766
			c4.659-5.282,11.359-8.311,18.383-8.311c7.024,0,13.725,3.028,18.383,8.311c1.551,1.758,3.783,2.766,6.128,2.766
			s4.576-1.008,6.128-2.766c4.659-5.282,11.359-8.311,18.383-8.311c13.515,0,24.511,10.996,24.511,24.511v24.511h-24.511
			c-4.513,0-8.17,3.657-8.17,8.17v81.702c0,4.506-3.665,8.17-8.17,8.17c-4.506,0-8.17-3.665-8.17-8.17V73.532
			c0-4.513-3.657-8.17-8.17-8.17h-32.681c-4.513,0-8.17,3.657-8.17,8.17v147.064c0,4.506-3.665,8.17-8.17,8.17
			c-4.506,0-8.17-3.665-8.17-8.17V73.532c0-4.513-3.657-8.17-8.17-8.17H71.829V40.851z M316.935,81.702v49.021h-16.34V81.702
			H316.935z M251.573,81.702v49.021h-16.34V81.702H251.573z M71.829,81.702h114.383v49.021H71.829V81.702z M480.341,307.745h-0.002
			c0,31.535-25.657,57.191-57.191,57.191h-65.362c-4.513,0-8.17,3.657-8.17,8.17v32.681c0,0.301,0.017,0.604,0.05,0.902
			l7.286,65.562c0.701,6.299-1.082,12.19-5.019,16.589c-3.936,4.398-9.595,6.82-15.933,6.82H52.766
			c-6.338,0-11.996-2.423-15.932-6.82c-3.937-4.398-5.719-10.289-5.019-16.589l7.285-65.562c0.033-0.3,0.05-0.601,0.05-0.902V81.702
			h16.34v258.723c0,4.513,3.657,8.17,8.17,8.17c4.513,0,8.17-3.657,8.17-8.17V147.064h114.383v73.532
			c0,13.515,10.996,24.511,24.511,24.511s24.511-10.996,24.511-24.511v-73.532h16.34v8.17c0,13.515,10.996,24.511,24.511,24.511
			c13.515,0,24.511-10.996,24.511-24.511v-8.17h16.34v250.553H71.831v-24.511c0-4.513-3.657-8.17-8.17-8.17
			c-4.513,0-8.17,3.657-8.17,8.17v32.681c0,4.513,3.657,8.17,8.17,8.17h261.447c4.513,0,8.17-3.657,8.17-8.17V81.702h16.34v24.511
			c0,4.513,3.657,8.17,8.17,8.17h65.362c31.535,0,57.191,25.657,57.191,57.191V307.745z"/>
	</g>
</g>
<g>
	<g>
		<path d="M423.148,130.723h-65.362c-4.513,0-8.17,3.657-8.17,8.17v201.532c0,4.513,3.657,8.17,8.17,8.17h65.362
			c22.526,0,40.851-18.325,40.851-40.851v-136.17C463.999,149.049,445.674,130.723,423.148,130.723z M447.658,307.745
			c0,13.515-10.996,24.511-24.511,24.511h-57.192V147.064h57.192c13.515,0,24.511,10.996,24.511,24.511V307.745z"/>
	</g>
</g>
<g>
</g>
<g>
</g>
<g>
</g>
<g>
</g>
<g>
</g>
<g>
</g>
<g>
</g>
<g>
</g>
<g>
</g>
<g>
</g>
<g>
</g>
<g>
</g>
<g>
</g>
<g>
</g>
<g>
</g>
</svg>
